<?xml version="1.0" encoding="UTF-8"?>
<svg id="Camada_2" data-name="Camada 2" xmlns="http://www.w3.org/2000/svg" viewBox="0 0 698.08 253.45">
  <defs>
    <style>
      .cls-1 {
        fill: #ff008b;
        stroke-width: 0px;
      }
    </style>
  </defs>
  <g id="Camada_1-2" data-name="Camada 1">
    <g>
      <path class="cls-1" d="M178.73,139.96c-.32-.22-.51-.59-.59-1.12-.83-1.75-1.71-3.37-2.63-4.84-.93-1.47-1.91-2.8-2.95-3.99-3.43-3.78-7.58-6.47-12.44-8.03-4.86-1.55-10.19-2.3-15.97-2.2-6.67-.03-13.53.67-20.53,2.1-7.01,1.44-13.46,3.16-19.34,5.14-5.88,1.99-10.83,3.83-14.86,5.52-4.03,1.7-6.43,2.76-7.22,3.18-.56.11-.96.32-1.18.63-2.37,1.26-5.14,2.6-8.34,4.04.06-1.09.22-2.47.47-4.13.17-.57.21-1.11.1-1.64,5.03-28.18,11.37-49.13,18.65-62.79,7.29-13.65,14.53-22.93,21.54-27.84,8.04-5.88,16.25-7.71,24.49-5.48,3,1.69,5.27,4.09,6.83,7.19,1.55,3.11,2.62,6.49,3.21,10.15-2.6,4.39-5.12,8.18-7.57,11.36-2.46,3.18-4.69,5.87-6.7,8.06-2.55,2.54-5.02,4.55-7.44,6-2.95,1.82-5.44,3.7-7.46,5.64-1.79,1.64-3.3,3.5-4.55,5.59-1.25,2.09-1.4,4.13-.45,6.11.52,1.26,1.32,2.46,2.41,3.61,1.09,1.16,2.48,1.99,4.19,2.51,1.7.52,3.84.57,6.4.15,2.56-.42,5.72-1.59,9.51-3.53,9.82-6.1,19.15-15.1,28.15-27.05,8.99-11.94,15.95-24.31,20.77-37.18,3.15-7.59,4.45-13.61,3.84-18.06-.61-4.45-1.83-7.77-3.66-9.93-2.2-2.65-5.2-4.41-9-5.25-1.58-.33-3.17.35-4.76,2.02-1.59,1.68-3.16,4.02-4.69,7.03-1.54,3.01-3.13,6.56-4.79,10.66-1.66,4.1-3.37,8.27-5.12,12.53-3.54-7.24-8.84-11.96-15.89-14.12-4.51-1.46-11.47-1.55-20.88-.19-9.4,1.37-19.4,5.91-29.84,13.66-10.44,7.75-20.44,19.68-29.77,35.78-9.33,16.1-16.01,37.86-19.9,65.18-.54,4.17-1.03,8.2-1.47,12.08-.44,3.89-.7,7.59-.77,11.12-7.39,3.23-12.92,4.01-16.67,2.28-3.75-1.72-6.49-3.73-8.21-6.05-1.54-1.54-2.89-1.98-4.04-1.3-1.15.68-2.16,1.66-3.02,2.94C1.92,164.82-.23,171.05.02,176.15c.25,5.11,1.37,9.32,3.35,12.65,2.16,4.1,5.42,7.4,9.74,9.9,4.65,2.7,9.47,3.81,14.47,3.34,5-.47,10.19-1.98,15.58-4.51,3.3,10.91,7.91,18.96,13.8,24.18,5.88,5.22,11.75,8.71,17.65,10.47,6.79,2.11,13.95,2.83,21.52,2.17,12.86-1.68,24.21-6.09,34.23-13.31,10.01-7.22,18.72-15.39,26.15-24.56-4.66,10.88-10.34,20.35-17.04,28.44-6.71,8.09-13.08,14.83-19.16,20.23-1.23.76-1.82,1.94-1.8,3.55-.03,1.35.8,2.54,2.48,3.58,1.67,1.04,5.05,1.37,10.12,1.02,1.31-.23,2.86-.64,4.65-1.21,1.78-.58,3.66-1.43,5.64-2.57,8.83-5.24,15.91-11.72,21.22-19.49,5.32-7.78,9.3-15.84,11.91-24.23,3.68-10.42,6.18-20.11,7.4-29.08.99-8.67,1.07-16.09.19-22.24-.88-6.14-2-10.99-3.37-14.54ZM160.84,163.96c-3.22,3.83-7.38,7.8-12.46,11.94-5.09,4.14-10.64,8.26-16.65,12.35-6.01,4.09-11.72,7.3-17.16,9.62-7.02,2.87-12.91,4.17-17.72,3.87-4.82-.3-8.8-1.68-11.96-4.16-3.17-2.48-5.68-5.82-7.53-10.03-1.85-4.21-3.13-8.67-3.81-13.39,2.26-2.88,5.64-6.24,10.18-10.08,4.53-3.83,9.46-7.59,14.79-11.25,5.33-3.66,10.92-6.87,16.75-9.63,5.83-2.75,11.3-4.4,16.38-4.97.84-.14,2.67-.37,5.49-.69,2.82-.31,5.84-.26,9.07.17,3.23.44,6.41,1.49,9.53,3.15,3.12,1.67,5.52,4.26,7.2,7.75.04.26.13.38.27.36.14-.02.23.1.27.36.02.13.04.26.06.39.39.74.72,1.5.99,2.26.26.76.49,1.8.69,3.1.02.13.04.26.06.39.28,1.83-1.21,4.65-4.42,8.47Z"/>
      <path class="cls-1" d="M277.17,156.15c-4.01-4.17-6.39-10-7.09-17.5-.7-7.5-.03-15.32,2.07-23.46.37-2.15.95-4.39,1.74-6.71.79-2.32,1.66-4.58,2.62-6.78,1.09-3.8,2.43-7.36,4.03-10.67,1.59-3.31,3.01-6.07,4.28-8.29,1.24-2.48,1.17-4.99-.22-7.54-.02-.26-.18-.38-.47-.36-.01-.13-.02-.26-.03-.4-.97-1.12-1.95-2.24-2.93-3.35-.3-.11-.61-.22-.91-.33-.29.02-.45-.1-.47-.36-1.58-1.2-2.97-1.95-4.16-2.25-1.2-.3-2.25-.54-3.15-.74-1.19-.16-2.07-.09-2.62.22-2.23,1.25-3.47,2.15-3.7,2.7-.15.01-.29.03-.44.04-3.21,3.2-6.07,6.84-8.57,10.91-2.51,4.08-4.46,7.65-5.88,10.7-1.92,3.9-4.13,8.3-6.63,13.19-2.5,4.9-5.06,9.68-7.69,14.33-2.63,4.66-5.23,8.73-7.81,12.2-2.58,3.47-4.8,5.72-6.67,6.73-.25.3-.65.47-1.21.54-1.99-.03-3.39-1.01-4.19-2.91-.81-1.9-1.29-4.1-1.46-6.62-.17-2.51-.06-5.05.34-7.62.39-2.57.66-4.53.78-5.88-.03-.26.02-.4.16-.42.14-.02.2-.15.16-.42.4-1.37.82-2.69,1.24-3.93.42-1.25.84-2.55,1.25-3.93,1.26-3.86,2.57-7.47,3.91-10.81,1.34-3.34,2.61-6.13,3.8-8.39,1.36-3.34,1.04-6.09-.97-8.27-2.01-2.17-3.66-3.59-4.91-4.25-2.22-1.35-4.38-2.17-6.47-2.47-.93-.42-2.89-.73-5.86-.92-2.97-.18-5.05.86-6.22,3.13-.51.6-2.55,4.77-6.05,12.52-3.5,7.76-6.82,18.11-9.9,31.05.04.26,0,.54-.1.81-.11.28-.14.56-.1.81-.66,1.42-1.03,2.94-1.09,4.54-2.69,15.56-1.38,26.86,3.68,33.91,5.07,7.06,12.73,9.51,23.11,7.45,1.38-.17,2.7-.72,3.99-1.68,1.9-.49,3.84-1.78,5.83-3.87,3.03-2.74,5.92-6.26,8.66-10.55,2.74-4.29,5.41-8.82,8-13.62-.26,5.35-.18,9.79.21,13.33.4,3.55.84,6.36,1.35,8.43.2,1.84,1.36,3.44,3.47,4.82,3.51,1.49,6.95,2.34,10.32,2.55,3.37.2,6.49.1,9.38-.29,2.89-.4,5.54-1.04,7.97-1.91,2.43-.88,4.45-1.65,6.06-2.31,1.33-.65,1.75-1.48,1.24-2.49-.51-1.01-1.08-1.9-1.7-2.64Z"/>
      <path class="cls-1" d="M399.36,102.22c.81-2.26,1.76-4.45,2.86-6.59,1.64-3.72,3.3-7.18,4.97-10.37,1.67-3.19,3.21-5.85,4.63-7.98,1.97-3.19,2.08-5.97.28-8.33-1.8-2.36-3.45-3.93-4.92-4.71-1.49-1.04-2.68-1.75-3.57-2.14-.89-.38-1.63-.7-2.22-.96-1.19-.51-3.26-1-6.2-1.48-2.95-.47-5.13.36-6.52,2.51-.57.55-3.02,4.49-7.27,11.87-4.26,7.38-8.59,17.36-12.94,29.93-.76,2.13-1.46,4.2-2.09,6.2-1.47,1.47-3.18,3.06-5.16,4.76-3.85,3.32-8.1,6.46-12.77,9.44-4.67,2.98-9.55,5.67-14.63,8.05-5.09,2.39-9.65,3.77-13.71,4.14-4.07.38-7.43-.34-10.1-2.15-2.67-1.81-4.08-5.49-4.21-11.04,3.36-.75,7.6-1.89,12.77-3.4,5.16-1.5,10.32-4.24,15.52-8.21,1.39-.6,2.49-1.32,3.3-2.15.81-.83,1.75-1.8,2.84-2.92,1.9-1.68,3.79-3.88,5.66-6.61,2.41-3.28,4.47-6.68,6.17-10.19,1.7-3.5,2.76-6.92,3.18-10.25.42-3.32.13-6.35-.89-9.09-1.01-2.74-2.87-4.85-5.59-6.32-4.22-2.2-8.68-3.12-13.35-2.76-4.68.37-9.29,1.67-13.83,3.91-4.54,2.24-8.81,5.02-12.79,8.32-3.99,3.3-7.58,6.79-10.77,10.46-5.32,6.2-9.79,13.17-13.44,20.87-3.65,7.71-5.76,15.18-6.39,22.39-.63,7.21.59,13.67,3.62,19.39,3.03,5.72,8.52,9.45,16.47,11.26,8.53,2.03,16.82,1.42,24.98-1.84,8.16-3.26,15.66-7.61,22.54-13.09,6.28-5,11.77-10.2,16.47-15.63-.25,1.84-.42,3.59-.5,5.25-.37,7.69-.19,13.37.53,17.04.3.52.62,1.3.94,2.35.32,1.05,1.19,1.94,2.62,2.68,3.42,1.73,6.8,2.81,10.15,3.24,3.35.43,6.49.54,9.4.34,2.92-.21,5.54-.66,7.9-1.36,2.35-.71,4.35-1.34,6.02-1.89,1.38-.56,1.85-1.36,1.41-2.4-.44-1.05-.95-1.97-1.53-2.75-3.73-4.43-5.72-10.4-5.92-17.93-.2-7.53,1-15.29,3.66-23.27.8-2.13,1.61-4.32,2.41-6.58ZM305.67,110.46c-.07-.92.14-1.93.63-3.02.84-4.03,2.27-8.03,4.29-12,2.02-3.96,4.09-7.34,6.22-10.12,2.12-2.77,4.24-4.82,6.34-6.13,2.1-1.31,3.62-1.32,4.58-.05,1.55,1.5,1.83,3.81.87,6.9-.97,3.1-2.36,6.15-4.18,9.16-.76,1.63-2.63,3.99-5.58,7.07-.94.98-1.88,1.97-2.81,2.95-1.34,1.41-2.89,2.76-4.66,4.06-1.77,1.3-3.88,2.7-6.34,4.19.49-1.09.7-2.1.63-3.02Z"/>
      <path class="cls-1" d="M393.59,50.57c1.23,1.83,3.04,3.25,5.42,4.27,2.38,1.02,4.38,1.59,6,1.7,1.61.12,2.72.17,3.31.16.59,0,1.16-.27,1.75-.81,1.13-1.86,4.11-3.87,8.94-6.02,4.83-2.14,9.68-4.4,14.54-6.76,4.86-2.37,8.86-4.78,11.97-7.27,3.11-2.48,3.78-5.18,1.98-8.11-2.1-2.93-5.56-5.01-10.36-6.22-4.81-1.21-9.98-1.47-15.51-.79-5.53.68-10.89,2.32-16.05,4.89-5.17,2.58-9.01,6.02-11.56,10.29-2.27,3.75-3.2,6.74-2.84,8.98.36,2.24,1.16,4.14,2.39,5.7Z"/>
      <path class="cls-1" d="M491.38,157.96c-4.03-5.69-5.77-12.29-5.16-19.8.61-7.52,2.27-15.06,5.04-22.65,4.02-12.29,9.18-24.01,15.5-35.13,6.32-11.11,12.77-20.94,19.33-29.48,6.56-8.53,12.83-15.4,18.78-20.61,5.94-5.21,10.77-8.07,14.42-8.62.61-.22,1.15-.32,1.6-.29.45.03.99-.19,1.62-.68.31-.24.49-.62.52-1.16.01-.26.03-.53.04-.79-.39-4-1.58-7.19-3.58-9.58-2-2.38-4.27-4.25-6.79-5.6-2.52-1.35-5.14-2.24-7.87-2.66-2.72-.42-5.15-.69-7.27-.81-3.64-.2-5.78-.04-6.41.45-4.29.57-8.79,3.33-13.48,8.28-4.69,4.95-9.39,10.97-14.06,18.07-4.67,7.1-9.09,14.74-13.25,22.94-4.16,8.2-7.75,15.97-10.79,23.29-.58-.81-.99-2.27-1.25-4.4-.26-2.12-.68-3.59-1.25-4.39-.86-1.34-2.02-2.43-3.48-3.26-1.75-1.36-3.58-2.26-5.48-2.7-1.91-.44-3.46-.79-4.63-1.08-1.62-.03-3.24-.06-4.86-.08-8.54.4-17,4.29-25.27,11.67-8.27,7.39-15.04,16.02-20.34,25.84-5.3,9.83-8.5,19.79-9.71,29.85-1.2,10.07.96,17.96,6.37,23.71.57.53.92.92,1.07,1.18.14.26.49.53,1.06.78.28.26.57.52.85.79.56.26.91.46,1.06.59.14.13.49.33,1.06.59.14,0,.28,0,.42,0,1.69,1.31,3.79,2.08,6.31,2.34,8.1,1.55,15.33.25,21.78-3.93,6.44-4.18,12.09-9.12,16.95-14.86-.06,6.34,1.29,11.39,4.04,15.14,2.75,3.75,5.77,6.59,9.08,8.53,3.86,2.21,8.42,3.65,13.69,4.35,3.04.62,4.87.16,5.47-1.4.29-.52.18-1.45-.34-2.79-.26-.54-.53-1.08-.79-1.61ZM468.3,101c-.29.26-.44.52-.44.78,0,.27-.15.53-.44.78,0,.53-.08.93-.23,1.19-.15.26-.22.53-.22.79-.3.79-.6,1.57-.89,2.36-.3.79-.59,1.44-.88,1.97-.3,1.05-.6,2.11-.89,3.16-.3,1.05-.6,2.11-.89,3.16-4.03,3.1-8.39,6-13.09,8.73-4.7,2.72-8.59,3.95-11.7,3.67-4.54-.55-7.59-2.6-9.18-6.17-1.59-3.57-1.57-9.18.08-16.85.83-3.17,1.95-6.21,3.38-9.12,1.42-2.9,2.99-5.54,4.72-7.91,1.73-2.37,3.52-4.41,5.41-6.11,1.88-1.7,3.55-2.81,5.01-3.33,1.16-.52,2.76-1.09,4.81-1.73,2.04-.63,4.22-.4,6.55.69.15,0,.29,0,.44,0,1.74,1.09,3.76,3.24,6.06,6.45,2.29,3.22,3.09,9.05,2.41,17.5Z"/>
      <path class="cls-1" d="M585.45,160.86c-3.5-5.61-5.11-11.37-4.8-17.32.3-5.94,1.84-12.24,4.65-18.91,2.5-6.42,5.56-12.52,9.22-18.3,1.05-2.29,1.07-4.41.07-6.36-1.14-4.08-4.08-7.53-8.85-10.31-.29-.02-.58-.18-.84-.47-3.39-1.61-6.47-1.58-9.21.05-.15-.01-.29-.02-.44-.03,0-.13.02-.26.03-.4,1.41-3.6,1.94-7.07,1.58-10.42-.37-3.34-2.09-6.19-5.18-8.55-1.68-1.45-3.46-2.44-5.35-2.98-1.89-.53-3.41-.97-4.57-1.32-7.01-1.28-13.83.27-20.35,4.65-6.54,4.38-11.93,8.99-16.2,13.8-2.44,2.52-5.19,5.89-8.24,10.12-3.06,4.22-5.89,8.8-8.5,13.71-2.61,4.92-4.78,9.99-6.51,15.21-1.73,5.23-2.51,10.09-2.38,14.59.14,4.51,1.36,8.45,3.63,11.85,2.27,3.4,6.17,5.74,11.73,7.06,8.04,1.97,15.35,1.04,22.03-2.79,6.67-3.84,12.58-8.48,17.75-13.96-.39,6.33.72,11.31,3.3,14.94,2.58,3.62,5.5,6.22,8.76,7.8,3.78,2.14,8.31,3.43,13.61,3.87,3.02.78,4.88.42,5.57-1.12.62-.74.69-1.67.22-2.77-.24-.55-.47-1.1-.71-1.65ZM565.07,104.75c-1.34,2.82-2.53,5.65-3.57,8.49-.64,1.02-1.07,2.05-1.27,3.09-.21,1.05-.63,2.08-1.27,3.09-4.2,2.88-8.72,5.56-13.57,8.04-4.85,2.47-8.81,3.5-11.92,3.06-4.82-.53-7.86-2.41-9.14-5.66-1.29-3.24-1.41-6.95-.38-11.14,1.04-4.18,2.95-8.58,5.76-13.2,2.81-4.61,5.89-8.67,9.27-12.19,3.37-3.51,6.71-6.08,10.02-7.73,3.3-1.64,6.09-1.72,8.36-.25,2.54,1.76,3.34,4.07,2.45,6.92-.9,2.86-1.97,4.9-3.2,6.14-.15.12-.31.24-.46.37-.46.37-.91.73-1.37,1.1-.67,1.54-.75,2.87-.23,3.96.24.81,1.66,1.3,4.26,1.48,2.31.16,4.28-.16,5.93-.97,1.64-.81,3.23-1.81,4.77-3.03-1.64,2.8-3.13,5.6-4.46,8.42Z"/>
      <path class="cls-1" d="M695.28,83.6c-1.78-2.39-4.09-3.64-6.91-3.76-2.83-.12-5.46.06-7.9.53-.66.45-1.42.68-2.32.69-.9.02-1.67.25-2.32.7-6.76,1.78-12.69,4.31-17.77,7.55-5.09,3.24-9.42,6.53-12.99,9.84-3.58,3.32-6.45,6.38-8.63,9.2-2.19,2.82-3.75,4.71-4.72,5.66.7-1.25,1.4-2.44,2.1-3.56.69-1.12,1.39-2.3,2.11-3.56,2.1-3.49,4.19-6.71,6.26-9.67,2.07-2.96,3.94-5.4,5.62-7.34,2.37-2.92,2.82-5.66,1.31-8.23-1.51-2.57-2.81-4.32-3.9-5.24-1.36-1.22-2.54-2.08-3.52-2.59-.99-.51-1.77-.93-2.33-1.26-.83-.62-2.76-1.37-5.8-2.23-3.04-.86-5.4-.31-7.06,1.64-4.09,5.69-7.73,10.96-10.95,15.82-3.23,4.86-6.21,9.75-8.96,14.67-2.75,4.92-5.15,10.14-7.19,15.65-2.05,5.52-3.9,11.52-5.58,18-.52,2.88-.6,5.59-.24,8.14.36,2.56,1.58,4.92,3.66,7.1,2.08,2.18,5.08,4.26,9.01,6.23,3.92,1.98,9.35,3.72,16.27,5.25.25.29.67.33,1.26.14.89-.43,1.83-1.26,2.8-2.49.66-.99.93-2.15.78-3.5-1.01-4.1-.78-8.52.71-13.28,1.48-4.76,3.6-9.38,6.37-13.86,2.77-4.48,5.8-8.59,9.11-12.33,3.3-3.74,6.39-6.64,9.25-8.69.31-.22.74-.17,1.3.16-.03.26-.06.53-.09.79-3.47,4.91-4.83,8.14-4.13,9.69.7,1.55,1.55,3.05,2.55,4.5,1.51,2.05,3.59,3.5,6.25,4.36,2.65.87,5.48,1.43,8.5,1.68,3.01.26,5.85.23,8.5-.08,2.65-.31,4.87-.6,6.66-.9,1.5-.33,2.17-1.03,2.02-2.12-.15-1.08-.47-2.07-.93-2.93-1.62-1.02-2.33-2.32-2.13-3.89.2-1.57.86-3.35,1.99-5.33,1.13-1.98,2.56-4.05,4.32-6.21,1.75-2.16,3.36-4.34,4.83-6.53,1.76-2.16,3.38-4.93,4.87-8.32,1.48-3.39.82-6.76-2.03-10.1Z"/>
    </g>
  </g>
</svg>