<?xml version="1.0" encoding="UTF-8"?>
<svg id="Camada_2" data-name="Camada 2" xmlns="http://www.w3.org/2000/svg" viewBox="0 0 404.83 534.24">
  <defs>
    <style>
      .cls-1 {
        fill: #ff008b;
        stroke-width: 0px;
      }
    </style>
  </defs>
  <g id="Camada_1-2" data-name="Camada 1">
    <path class="cls-1" d="M382.45,291.38c-.68-.47-1.1-1.27-1.26-2.4-1.77-3.74-3.65-7.2-5.64-10.35-2-3.15-4.1-5.99-6.32-8.54-7.34-8.1-16.23-13.84-26.62-17.18-10.4-3.32-21.81-4.91-34.17-4.71-14.28-.06-28.95,1.43-43.94,4.49-15.01,3.08-28.8,6.75-41.38,10.99-12.59,4.26-23.18,8.21-31.8,11.82-8.62,3.63-13.76,5.91-15.45,6.8-1.21.23-2.05.69-2.53,1.35-5.06,2.69-11.01,5.57-17.84,8.64.14-2.32.47-5.28,1-8.84.37-1.22.45-2.38.22-3.5,10.77-60.3,24.32-105.12,39.92-134.35,15.6-29.21,31.1-49.07,46.08-59.58,17.2-12.58,34.77-16.49,52.4-11.74,6.42,3.61,11.28,8.74,14.62,15.39,3.32,6.66,5.61,13.9,6.86,21.71-5.55,9.4-10.95,17.5-16.2,24.31-5.26,6.81-10.03,12.57-14.33,17.24-5.45,5.44-10.74,9.73-15.92,12.84-6.32,3.89-11.64,7.91-15.96,12.07-3.82,3.51-7.07,7.5-9.74,11.95-2.68,4.47-3,8.83-.97,13.07,1.1,2.69,2.83,5.26,5.16,7.73,2.33,2.48,5.31,4.27,8.96,5.38,3.64,1.11,8.21,1.22,13.69.32,5.49-.9,12.25-3.41,20.34-7.56,21-13.04,40.98-32.32,60.23-57.88,19.24-25.54,34.12-52.02,44.44-79.56,6.74-16.25,9.53-29.12,8.22-38.66-1.31-9.52-3.92-16.62-7.82-21.26-4.71-5.68-11.12-9.43-19.25-11.24-3.39-.7-6.78.75-10.18,4.32-3.4,3.59-6.76,8.6-10.04,15.04-3.3,6.44-6.71,14.05-10.26,22.81-3.54,8.77-7.21,17.71-10.97,26.81-7.57-15.49-18.92-25.6-34.01-30.21-9.65-3.13-24.55-3.32-44.67-.41-20.11,2.93-41.51,12.65-63.85,29.22-22.33,16.58-43.73,42.12-63.7,76.56-19.97,34.46-34.26,81.02-42.59,139.47-1.16,8.92-2.2,17.54-3.15,25.84-.95,8.31-1.5,16.25-1.66,23.8-15.81,6.91-27.65,8.59-35.66,4.89-8.02-3.68-13.88-7.99-17.56-12.95-3.29-3.29-6.17-4.23-8.64-2.78-2.47,1.45-4.63,3.56-6.45,6.3C4.11,344.58-.5,357.92.04,368.84c.53,10.93,2.94,19.95,7.17,27.07,4.63,8.78,11.59,15.83,20.84,21.19,9.95,5.77,20.26,8.16,30.97,7.16,10.71-1.01,21.8-4.23,33.33-9.65,7.07,23.34,16.92,40.57,29.52,51.75,12.59,11.18,25.14,18.64,37.77,22.4,14.54,4.51,29.86,6.05,46.05,4.65,27.52-3.59,51.81-13.03,73.24-28.48,21.42-15.45,40.06-32.92,55.96-52.55-9.97,23.29-22.12,43.55-36.47,60.86-14.36,17.3-27.98,31.74-41,43.29-2.62,1.62-3.9,4.16-3.84,7.59-.06,2.88,1.72,5.43,5.31,7.66,3.58,2.22,10.8,2.92,21.65,2.18,2.8-.49,6.11-1.36,9.95-2.59,3.82-1.24,7.84-3.06,12.06-5.5,18.9-11.22,34.04-25.07,45.41-41.7,11.37-16.64,19.89-33.89,25.48-51.85,7.87-22.29,13.21-43.02,15.84-62.23,2.11-18.56,2.28-34.42.4-47.58-1.88-13.15-4.28-23.52-7.21-31.12ZM344.16,342.74c-6.88,8.19-15.8,16.69-26.67,25.55-10.89,8.87-22.76,17.67-35.62,26.43-12.86,8.75-25.08,15.61-36.72,20.58-15.01,6.13-27.62,8.92-37.92,8.28-10.31-.64-18.83-3.6-25.6-8.89-6.78-5.3-12.15-12.45-16.11-21.46-3.97-9.01-6.69-18.56-8.15-28.65,4.83-6.15,12.07-13.35,21.77-21.56,9.69-8.2,20.24-16.23,31.65-24.08,11.41-7.83,23.36-14.7,35.84-20.6,12.47-5.88,24.19-9.42,35.05-10.63,1.8-.29,5.71-.79,11.75-1.47,6.03-.67,12.5-.56,19.42.37,6.9.94,13.71,3.18,20.39,6.75,6.68,3.58,11.81,9.11,15.4,16.58.09.56.27.82.58.77.29-.04.49.22.58.77.04.28.09.56.13.84.84,1.59,1.55,3.2,2.11,4.84.55,1.63,1.04,3.85,1.47,6.64.04.28.09.56.13.84.6,3.92-2.58,9.95-9.46,18.12Z"/>
  </g>
</svg>